<svg id="visual" viewBox="0 0 960 540" width="960" height="540" xmlns="http://www.w3.org/2000/svg" xmlns:xlink="http://www.w3.org/1999/xlink" version="1.1"><rect x="0" y="0" width="960" height="540" fill="#12192c"></rect><path d="M0 252L22.8 236C45.7 220 91.3 188 137 191C182.7 194 228.3 232 274 240.3C319.7 248.7 365.3 227.3 411.2 207.8C457 188.3 503 170.7 548.8 168.3C594.7 166 640.3 179 686 181.2C731.7 183.3 777.3 174.7 823 177.5C868.7 180.3 914.3 194.7 937.2 201.8L960 209L960 541L937.2 541C914.3 541 868.7 541 823 541C777.3 541 731.7 541 686 541C640.3 541 594.7 541 548.8 541C503 541 457 541 411.2 541C365.3 541 319.7 541 274 541C228.3 541 182.7 541 137 541C91.3 541 45.7 541 22.8 541L0 541Z" fill="#12192c"></path><path d="M0 241L22.8 246.5C45.7 252 91.3 263 137 273.3C182.7 283.7 228.3 293.3 274 296.3C319.7 299.3 365.3 295.7 411.2 280.7C457 265.7 503 239.3 548.8 237.3C594.7 235.3 640.3 257.7 686 260.7C731.7 263.7 777.3 247.3 823 249.5C868.7 251.7 914.3 272.3 937.2 282.7L960 293L960 541L937.2 541C914.3 541 868.7 541 823 541C777.3 541 731.7 541 686 541C640.3 541 594.7 541 548.8 541C503 541 457 541 411.2 541C365.3 541 319.7 541 274 541C228.3 541 182.7 541 137 541C91.3 541 45.7 541 22.8 541L0 541Z" fill="#2d274f"></path><path d="M0 270L22.8 278.2C45.7 286.3 91.3 302.7 137 307.5C182.7 312.3 228.3 305.7 274 307.5C319.7 309.3 365.3 319.7 411.2 325.8C457 332 503 334 548.8 335.2C594.7 336.3 640.3 336.7 686 327C731.7 317.3 777.3 297.7 823 285.8C868.7 274 914.3 270 937.2 268L960 266L960 541L937.2 541C914.3 541 868.7 541 823 541C777.3 541 731.7 541 686 541C640.3 541 594.7 541 548.8 541C503 541 457 541 411.2 541C365.3 541 319.7 541 274 541C228.3 541 182.7 541 137 541C91.3 541 45.7 541 22.8 541L0 541Z" fill="#5a2e6c"></path><path d="M0 402L22.8 391.5C45.7 381 91.3 360 137 354C182.7 348 228.3 357 274 366.7C319.7 376.3 365.3 386.7 411.2 384C457 381.3 503 365.7 548.8 354.3C594.7 343 640.3 336 686 343.7C731.7 351.3 777.3 373.7 823 383C868.7 392.3 914.3 388.7 937.2 386.8L960 385L960 541L937.2 541C914.3 541 868.7 541 823 541C777.3 541 731.7 541 686 541C640.3 541 594.7 541 548.8 541C503 541 457 541 411.2 541C365.3 541 319.7 541 274 541C228.3 541 182.7 541 137 541C91.3 541 45.7 541 22.8 541L0 541Z" fill="#902b7c"></path><path d="M0 413L22.8 416C45.7 419 91.3 425 137 423C182.7 421 228.3 411 274 412.3C319.7 413.7 365.3 426.3 411.2 423.8C457 421.3 503 403.7 548.8 405.2C594.7 406.7 640.3 427.3 686 430.3C731.7 433.3 777.3 418.7 823 412.7C868.7 406.7 914.3 409.3 937.2 410.7L960 412L960 541L937.2 541C914.3 541 868.7 541 823 541C777.3 541 731.7 541 686 541C640.3 541 594.7 541 548.8 541C503 541 457 541 411.2 541C365.3 541 319.7 541 274 541C228.3 541 182.7 541 137 541C91.3 541 45.7 541 22.8 541L0 541Z" fill="#c91b7d"></path><path d="M0 458L22.8 462.3C45.7 466.7 91.3 475.3 137 478C182.7 480.7 228.3 477.3 274 471.5C319.7 465.7 365.3 457.3 411.2 454.2C457 451 503 453 548.8 460.2C594.7 467.3 640.3 479.7 686 486C731.7 492.3 777.3 492.7 823 490.3C868.7 488 914.3 483 937.2 480.5L960 478L960 541L937.2 541C914.3 541 868.7 541 823 541C777.3 541 731.7 541 686 541C640.3 541 594.7 541 548.8 541C503 541 457 541 411.2 541C365.3 541 319.7 541 274 541C228.3 541 182.7 541 137 541C91.3 541 45.7 541 22.8 541L0 541Z" fill="#fe006f"></path></svg>